<svg xmlns="http://www.w3.org/2000/svg" width="1440" height="1024" viewBox="0 0 1440 1024">
  <defs>
    <pattern id="grain" width="12" height="12" patternUnits="userSpaceOnUse"><circle cx="2" cy="3" r=".55" fill="#A99C84" opacity=".20"/><circle cx="8" cy="9" r=".45" fill="#A99C84" opacity=".15"/><path d="M0 11L12 0" stroke="#B9AD97" opacity=".07"/></pattern>
    <filter id="shadow" x="-20%" y="-20%" width="150%" height="150%"><feDropShadow dx="3" dy="4" stdDeviation="1" flood-color="#191715" flood-opacity=".22"/></filter>
    <style>
      .ui{font-family:'Microsoft YaHei UI','Microsoft YaHei','Segoe UI',sans-serif;fill:#191715}.small{font-size:11px}.meta{font-size:10px;fill:#716B60}.label{font-size:11px;font-weight:700}.title{font-size:17px;font-weight:800}.body{font-size:11px;fill:#403C36}.mono{font-size:9px;font-family:Consolas,monospace;fill:#403C36}.line{stroke:#191715;stroke-width:1.5}.soft{stroke:#CFC6B6;stroke-width:1}.tab{font-size:10px;font-weight:800;fill:#191715}.hand{font-family:'Comic Sans MS','Microsoft YaHei UI',sans-serif;font-size:11px;font-weight:700}
    </style>
  </defs>
  <rect width="1440" height="1024" fill="#ECE8DD"/>
  <rect x="8" y="8" width="1424" height="1008" rx="10" fill="#FFFDF6" stroke="#191715" stroke-width="3"/>
  <rect x="8" y="8" width="1424" height="86" rx="9" fill="#FFFDF6" stroke="#191715" stroke-width="3"/>
  <path d="M193 9V1016" class="line"/>
  <g class="ui">
    <rect x="22" y="24" width="150" height="46" rx="4" fill="#FFFDF6" stroke="#191715" stroke-width="2"/>
    <text x="40" y="54" font-size="21" font-weight="900">STYLEBASE</text><text x="134" y="54" font-size="11" fill="#135DFF">档案</text>
    <rect x="210" y="30" width="680" height="42" rx="8" fill="#FFFDF6" stroke="#191715" stroke-width="2"/><text x="230" y="57" font-size="13" fill="#777067">搜索风格、版面、色彩、文字或来源…</text><text x="864" y="58" font-size="15">/</text>
    <rect x="1043" y="31" width="108" height="40" rx="6" fill="#FFFDF6" stroke="#191715" stroke-width="2"/><text x="1063" y="57" font-size="12" font-weight="700">⇧ 汇入影像</text>
    <rect x="1161" y="31" width="120" height="40" rx="6" fill="#FFFDF6" stroke="#191715" stroke-width="2"/><text x="1183" y="57" font-size="12" font-weight="700">⌁ 扫描资料夹</text>
    <rect x="1291" y="31" width="124" height="40" rx="6" fill="#135DFF" stroke="#191715" stroke-width="2"/><text x="1311" y="57" font-size="12" font-weight="800" fill="#fff">✓ 送交 Codex</text>
    <text x="34" y="132" class="label">资料库</text><text x="144" y="132" class="small" fill="#16734C">本地连线</text>
    <g transform="translate(20 154)"><rect width="156" height="52" rx="8" fill="#FFD51D" stroke="#191715" stroke-width="2" stroke-dasharray="5 3"/><text x="19" y="32" font-size="13" font-weight="800">▣ 素材库</text><text x="133" y="32" class="small">24</text></g>
    <g font-size="13"><text x="39" y="235">▱ 待整理</text><text x="159" y="235" class="small">0</text><text x="39" y="278">▰ 收藏集</text><text x="159" y="278" class="small">5</text><text x="39" y="321">☷ Codex 队列</text><text x="159" y="321" class="small">0</text><text x="39" y="364">✎ 设定</text></g>
    <path d="M20 393H177" class="soft"/><text x="35" y="425" class="label">收藏索引</text><text x="154" y="425" font-size="20">＋</text>
    <g class="small"><text x="35" y="465">产品与包装</text><text x="158" y="465">10</text><text x="35" y="497">品牌视觉</text><text x="158" y="497">16</text><text x="35" y="529">布局与构图</text><text x="158" y="529">13</text><text x="35" y="561">网页与界面</text><text x="158" y="561">17</text></g>
    <text x="34" y="940" class="hand" fill="#135DFF">灵感，</text><text x="34" y="958" class="hand" fill="#135DFF">有迹可循。</text>
  </g>
  <g class="ui"><text x="212" y="126" class="meta">视觉索引</text><text x="212" y="153" font-size="24" font-weight="900">素材库</text><text x="823" y="148" class="small">素材库 · 24 张影像</text>
    <g transform="translate(212 170)"><rect width="120" height="33" rx="5" fill="#FFFDF6" stroke="#191715" stroke-width="1.5"/><text x="11" y="21" class="small">全部领域　⌄</text><rect x="132" width="120" height="33" rx="5" fill="#FFFDF6" stroke="#191715" stroke-width="1.5"/><text x="143" y="21" class="small">全部状态　⌄</text><rect x="264" width="112" height="33" rx="5" fill="#FFFDF6" stroke="#191715" stroke-width="1.5"/><text x="275" y="21" class="small">最新加入　⌄</text></g>
  </g>
  <g fill="#FFFDF6" stroke="#191715" stroke-width="2"><rect x="212" y="220" width="150" height="182"/><rect x="376" y="220" width="150" height="182"/><rect x="540" y="220" width="150" height="182"/><rect x="704" y="220" width="150" height="182"/><rect x="212" y="420" width="314" height="205"/><rect x="540" y="420" width="314" height="205"/><rect x="212" y="642" width="150" height="182"/><rect x="376" y="642" width="150" height="182"/><rect x="540" y="642" width="150" height="182"/></g>
  <g opacity=".65"><rect x="224" y="232" width="126" height="125" fill="#D8D0BE"/><rect x="388" y="232" width="126" height="125" fill="#B9B7AE"/><rect x="552" y="232" width="126" height="125" fill="#E1CF86"/><rect x="716" y="232" width="126" height="125" fill="#CBA0AC"/><rect x="224" y="432" width="290" height="146" fill="#E7E3D8"/><rect x="552" y="432" width="290" height="146" fill="#2A2927"/></g>
  <g class="ui"><text x="224" y="382" class="small">Deta Space…</text><text x="388" y="382" class="small">Defi Landing…</text><text x="552" y="382" class="small">Joyful Health…</text><text x="716" y="382" class="small">F2rGU56…</text><rect x="210" y="640" width="154" height="186" rx="7" fill="none" stroke="#135DFF" stroke-width="3"/><path d="M216 800C245 622 353 625 361 744" fill="none" stroke="#135DFF" stroke-width="2"/></g>
  <g filter="url(#shadow)">
    <rect x="1016" y="101" width="408" height="898" rx="8" fill="#CBB998" stroke="#191715" stroke-width="2"/>
    <rect x="1028" y="111" width="372" height="878" rx="4" fill="#FFFDF6" stroke="#191715" stroke-width="2"/>
    <rect x="1028" y="111" width="372" height="878" fill="url(#grain)" opacity=".55"/>
  </g>
  <g class="ui">
    <path d="M1029 200H1400" class="soft"/><rect x="1050" y="127" width="72" height="19" rx="2" fill="#FFD51D" stroke="#191715"/><text x="1058" y="141" class="small" font-weight="800">分析完成</text><text x="1050" y="171" class="title">Barclay website in 1997</text><text x="1366" y="169" font-size="22">×</text>
    <path d="M1061 118V982" stroke="#D6CBB6" stroke-width="2"/>
    <g fill="#FFFDF6" stroke="#191715" stroke-width="2"><ellipse cx="1061" cy="174" rx="13" ry="6"/><ellipse cx="1061" cy="271" rx="13" ry="6"/><ellipse cx="1061" cy="368" rx="13" ry="6"/><ellipse cx="1061" cy="465" rx="13" ry="6"/><ellipse cx="1061" cy="562" rx="13" ry="6"/><ellipse cx="1061" cy="659" rx="13" ry="6"/><ellipse cx="1061" cy="756" rx="13" ry="6"/><ellipse cx="1061" cy="853" rx="13" ry="6"/></g>
    <g><path d="M1397 226h25v38h-25z" fill="#FFD51D" stroke="#191715" stroke-width="1.5"/><text x="1400" y="248" class="tab">概览</text><path d="M1397 279h21v52h-21z" fill="#B59BFF" stroke="#191715" stroke-width="1.5"/><text x="1399" y="301" class="tab">视觉</text><text x="1399" y="315" class="tab">分析</text><path d="M1397 346h21v52h-21z" fill="#7CA8FF" stroke="#191715" stroke-width="1.5"/><text x="1399" y="368" class="tab">实作</text><text x="1399" y="382" class="tab">输出</text><path d="M1397 413h21v52h-21z" fill="#82BE94" stroke="#191715" stroke-width="1.5"/><text x="1399" y="435" class="tab">资料</text><text x="1399" y="449" class="tab">管理</text></g>
    <text x="1084" y="226" class="label">概览</text><rect x="1122" y="214" width="38" height="18" rx="4" fill="#FFF1A5" stroke="#8F7600"/><text x="1129" y="227" class="small" font-weight="700">预览</text><text x="1367" y="226" class="mono">O01</text>
    <g transform="rotate(-1 1230 344)"><rect x="1084" y="246" width="286" height="208" rx="2" fill="#fff" stroke="#191715" stroke-width="2"/><image href="../../../library/inbox/Barclay%20website%20in%201997.png" x="1092" y="255" width="270" height="166" preserveAspectRatio="xMidYMid meet"/><path d="M1102 247l42 0 8 13-42 0z" fill="#DCE5E4" stroke="#191715"/><path d="M1308 247l42 0-7 14-42 0z" fill="#DCE5E4" stroke="#191715"/></g><text x="1090" y="443" class="meta">Barclay website in 1997.png</text><text x="1307" y="443" class="meta">830 × 600</text>
    <rect x="1084" y="470" width="96" height="36" rx="6" fill="#135DFF" stroke="#191715" stroke-width="2"/><text x="1095" y="493" fill="#fff" font-size="11" font-weight="800">送交 Codex</text><text x="1191" y="492" class="small">codex · 信心度 96%</text><path d="M1084 516H1370" class="soft"/>
    <text x="1084" y="540" class="body">横向桌面版式把窄导航与大留白并置；手绘标题、</text><text x="1084" y="557" class="body">扫描感图像和自由定位构成早期网页与独立刊物语汇。</text><path d="M1091 563q58 13 154 0" fill="none" stroke="#E74735" stroke-width="2"/><text x="1251" y="570" class="hand" fill="#E74735">核心判断</text>
    <rect x="1075" y="590" width="306" height="1" fill="#CABEA9"/><text x="1084" y="618" class="label">视觉分析</text><text x="1174" y="618" class="small" fill="#5D45A5">视觉 DNA</text><text x="1366" y="618" class="mono">A01</text>
    <text x="1084" y="646" class="meta">设计谱系</text><text x="1084" y="662" class="body">早期全球资讯网、DIY 小志与扫描剪贴的混合传统。</text><text x="1084" y="692" class="meta">构图</text><text x="1084" y="708" class="body">22% / 78% 双栏，以大字标与照片群聚建立锚点。</text>
    <g transform="translate(1084 735)"><text y="0" class="meta">色票</text><rect y="10" width="39" height="28" fill="#FFFDF6" stroke="#191715"/><rect x="44" y="10" width="39" height="28" fill="#1D1B19"/><rect x="88" y="10" width="39" height="28" fill="#B86531"/><rect x="132" y="10" width="39" height="28" fill="#CFA31A"/><rect x="176" y="10" width="39" height="28" fill="#C52D25"/></g>
    <rect x="1075" y="796" width="306" height="1" fill="#CABEA9"/><text x="1084" y="826" class="label">实作输出</text><text x="1162" y="826" class="small" fill="#135DFF">Prompt Kit</text><text x="1366" y="826" class="mono">I01</text><rect x="1084" y="841" width="286" height="62" rx="4" fill="#F5F1E8" stroke="#191715"/><text x="1095" y="863" class="mono">视觉提示词 · 摘要已展开</text><text x="1095" y="880" class="mono">复制后用于下一轮设计探索…</text><rect x="1293" y="854" width="64" height="28" rx="4" fill="#135DFF" stroke="#191715"/><text x="1308" y="872" font-size="10" font-weight="800" fill="#fff">复制</text>
  </g>
  <g class="ui"><rect x="8" y="908" width="1008" height="108" fill="#FFFDF6" stroke="#191715" stroke-width="2"/><text x="24" y="943" class="label">☷ Codex 分析队列</text><text x="26" y="973" font-size="20" font-weight="900" fill="#135DFF">00</text><text x="100" y="973" class="small">最近 33 项工作</text><g transform="translate(205 922)"><rect width="160" height="76" rx="7" fill="#FFFDF6" stroke="#191715" stroke-width="1.5"/><rect x="9" y="10" width="54" height="52" fill="#E2DED2"/><text x="75" y="31" class="small">分析完成</text><text x="75" y="51" class="small">视觉档案</text></g><g transform="translate(383 922)"><rect width="160" height="76" rx="7" fill="#FFFDF6" stroke="#191715" stroke-width="1.5"/><rect x="9" y="10" width="54" height="52" fill="#262321"/><text x="75" y="31" class="small">已收录</text><text x="75" y="51" class="small">等待复用</text></g></g>
</svg>
